<?xml version="1.0" standalone="no"?>
<!DOCTYPE svg PUBLIC "-//W3C//DTD SVG 20010904//EN"
 "http://www.w3.org/TR/2001/REC-SVG-20010904/DTD/svg10.dtd">
<svg version="1.0" xmlns="http://www.w3.org/2000/svg"
 width="511.000000pt" height="511.000000pt" viewBox="0 0 511.000000 511.000000"
 preserveAspectRatio="xMidYMid meet">
<metadata>
Created by potrace 1.14, written by Peter Selinger 2001-2017
</metadata>
<g transform="translate(0.000000,511.000000) scale(0.100000,-0.100000)"
fill="#000000" stroke="none">
<path d="M1441 3932 c-47 -196 -87 -365 -89 -374 -4 -15 7 -18 81 -20 l84 -3
-102 -425 c-56 -234 -105 -437 -108 -452 -7 -28 -8 -28 -92 -28 -71 0 -84 -3
-89 -17 -3 -10 -41 -171 -86 -358 -44 -187 -83 -348 -86 -357 -5 -17 32 -18
648 -20 l654 -3 -64 -147 -65 -148 -88 0 -88 0 -10 -37 c-6 -21 -44 -182 -86
-358 -42 -176 -78 -328 -81 -338 -5 -16 22 -17 496 -15 l502 3 92 250 91 250
38 3 c37 3 37 3 36 -35 0 -21 -10 -136 -23 -255 l-22 -218 498 0 c274 0 498 2
498 4 0 2 38 164 85 360 47 195 85 362 85 371 0 12 -15 15 -88 15 l-87 0 40
826 c22 454 38 828 36 830 -2 2 -181 4 -397 4 l-393 0 20 45 c35 79 129 492
129 567 0 187 -130 363 -308 418 -61 19 -95 20 -821 20 l-756 0 -84 -358z
m1661 195 c102 -50 178 -166 178 -273 0 -61 -97 -466 -127 -531 -34 -73 -104
-140 -188 -179 l-70 -33 507 -1 c279 0 509 -3 511 -7 2 -5 -13 -350 -34 -768
-21 -418 -38 -790 -39 -827 l0 -67 73 -3 74 -3 -56 -235 -56 -235 -373 -3
c-204 -1 -372 -1 -372 0 0 2 11 113 25 248 14 135 25 248 25 253 0 4 -71 7
-158 7 l-158 0 -93 -255 -94 -255 -369 0 -370 0 5 23 c3 12 28 120 57 239 l52
217 81 3 81 3 122 283 122 282 -663 0 c-365 0 -666 3 -669 8 -4 7 99 456 110
473 3 5 42 9 87 9 l83 0 137 578 c76 317 138 583 137 590 0 8 -23 12 -80 12
-44 0 -80 4 -80 9 0 5 22 103 50 218 27 114 52 218 55 231 l6 23 707 -3 707
-3 57 -28z"/>
<path d="M1655 4098 c-3 -13 -23 -98 -45 -190 -22 -93 -40 -175 -40 -183 0
-12 15 -15 80 -15 44 0 80 -3 80 -7 0 -5 -66 -286 -147 -625 l-147 -617 -86
-3 -85 -3 -42 -170 c-23 -93 -44 -185 -48 -203 l-6 -32 656 2 657 3 212 490
c117 270 215 498 218 507 6 13 -6 20 -62 37 -57 18 -67 24 -63 40 4 14 17 19
62 24 113 10 217 81 265 181 40 80 129 469 124 536 -5 70 -31 124 -85 177 -78
75 -52 73 -815 73 l-678 0 -5 -22z m998 -415 c-3 -16 -25 -106 -48 -201 -23
-95 -44 -175 -47 -177 -3 -3 -86 -4 -185 -3 l-179 3 43 180 c23 99 45 190 48
203 5 22 7 22 190 22 l185 0 -7 -27z m-233 -973 c-32 -133 -60 -243 -62 -246
-3 -2 -86 -3 -185 -2 l-180 3 49 205 c27 113 53 222 59 243 l10 37 183 0 183
0 -57 -240z"/>
<path d="M2286 3523 c-21 -87 -40 -166 -42 -175 -5 -17 6 -18 139 -18 l145 0
41 169 c23 93 41 171 41 175 0 3 -65 6 -143 6 l-144 0 -37 -157z"/>
<path d="M2135 2898 c-2 -7 -22 -92 -45 -188 -22 -96 -43 -183 -46 -192 -5
-17 6 -18 140 -18 129 0 145 2 150 18 4 15 35 140 81 335 l13 57 -144 0 c-107
0 -146 -3 -149 -12z"/>
<path d="M2945 3038 c-9 -18 -170 -391 -359 -828 l-344 -795 -79 -5 -78 -5
-47 -185 c-25 -102 -47 -193 -47 -203 -1 -16 19 -17 331 -15 l331 3 92 250 92
250 191 3 192 2 0 -23 c0 -29 -38 -412 -45 -455 l-6 -32 338 2 337 3 47 195
c26 107 45 198 42 202 -2 5 -33 8 -69 8 l-64 0 0 63 c1 34 18 404 39 822 21
418 36 763 34 768 -2 4 -209 7 -459 7 l-454 0 -15 -32z m400 -350 c-3 -24 -23
-218 -45 -432 -22 -214 -41 -391 -43 -393 -3 -2 -72 -2 -154 -1 l-150 3 168
410 c93 226 173 420 178 433 6 12 19 22 31 22 19 0 21 -4 15 -42z"/>
<path d="M3160 2267 c-68 -166 -130 -317 -137 -334 l-13 -33 108 0 108 0 33
330 c19 182 31 333 29 335 -3 3 -60 -131 -128 -298z"/>
</g>
</svg>
